<svg width="40" height="40" viewBox="0 0 40 40" fill="none" xmlns="http://www.w3.org/2000/svg">
    <circle cx="20" cy="20" r="19.95" fill="white" fill-opacity="0.3" stroke="black" stroke-width="0.1"/>
    <g clip-path="url(#clip0_0_1)">
        <path d="M31.9873 20.2245C31.9873 19.2413 31.9057 18.5238 31.729 17.7797H20.239V22.2176H26.9833C26.8474 23.3205 26.1132 24.9815 24.4814 26.0976L24.4585 26.2462L28.0915 28.9964L28.3431 29.0209C30.6547 26.9347 31.9873 23.8653 31.9873 20.2245Z" fill="#4285F4"/>
        <path d="M20.239 31.9176C23.5432 31.9176 26.3171 30.8545 28.3432 29.0209L24.4814 26.0976C23.4481 26.8018 22.0611 27.2935 20.239 27.2935C17.0028 27.2935 14.2562 25.2074 13.277 22.324L13.1335 22.3359L9.35598 25.1927L9.30658 25.3269C11.319 29.2334 15.4527 31.9176 20.239 31.9176Z" fill="#34A853"/>
        <path d="M13.277 22.3239C13.0187 21.5798 12.8692 20.7825 12.8692 19.9587C12.8692 19.1349 13.0187 18.3376 13.2634 17.5935L13.2566 17.4351L9.4317 14.5323L9.30655 14.5905C8.47714 16.2116 8.00122 18.032 8.00122 19.9587C8.00122 21.8854 8.47714 23.7058 9.30655 25.3268L13.277 22.3239Z" fill="#FBBC05"/>
        <path d="M20.2391 12.624C22.537 12.624 24.0871 13.594 24.971 14.4046L28.4247 11.1093C26.3036 9.18259 23.5432 8 20.2391 8C15.4527 8 11.319 10.6841 9.30658 14.5906L13.2635 17.5936C14.2562 14.7102 17.0029 12.624 20.2391 12.624Z" fill="#EB4335"/>
    </g>
    <defs>
        <clipPath id="clip0_0_1">
            <rect width="24" height="24" fill="white" transform="translate(8 8)"/>
        </clipPath>
    </defs>
</svg>
