<svg width="393" height="266" viewBox="0 0 393 266" fill="none" xmlns="http://www.w3.org/2000/svg">
    <path d="M414.856 142C414.856 245.277 414.856 361.5 190.856 329C-8 369 -33.1438 245.277 -33.1438 142C-33.1438 38.7228 69.7882 0 193.5 0C317.212 0 414.856 38.7228 414.856 142Z" fill="url(#paint0_linear_367_328)"/>
    <path d="M81.3122 158.811C86.3621 161.457 90.1615 162.804 91.1379 168.217C91.5817 170.677 116.983 170.667 119.089 168.255C121.089 165.964 123.573 159.317 129.034 155.792C119.822 155.421 118.161 160.294 117.58 159.89C115.743 158.615 115.412 153.507 115.805 150.049C112.36 150.67 108.894 155.868 107.384 159.697C106.602 155.367 98.6578 152.634 94.7831 151.809C97.713 154.532 98.4995 159.268 98.5265 161.295C95.6676 158.965 85.8591 158.669 81.3122 158.811Z" fill="#326227" stroke="#326227"/>
    <path d="M300 130.575C297.537 132.578 296.168 136.012 295.621 136.87C294.862 138.061 281.937 140.876 280.568 139.732C279.268 138.644 277.284 135.154 274 133.723C278.926 132.578 280.295 135.154 280.568 134.867C281.434 133.963 281.116 131.052 280.568 129.145C282.484 129.145 284.856 131.72 286.042 133.723C286.042 131.205 290.056 128.858 292.063 128C290.749 129.831 290.786 132.578 290.968 133.723C292.282 132.12 297.537 130.957 300 130.575Z" fill="#326227" stroke="#326227"/>
    <path d="M90.9867 62.8328C88.3268 64.1105 86.3827 66.8902 85.7086 67.5427C84.7737 68.4476 72.3626 68.2897 71.3385 66.9863C70.3656 65.7482 69.2487 62.2251 66.5263 60.271C71.2711 60.2675 72.0077 62.8468 72.316 62.6481C73.291 62.0199 73.5843 59.3586 73.466 57.5443C75.2217 57.9399 76.878 60.7264 77.5624 62.7577C78.0684 60.512 82.2185 59.2483 84.2304 58.8972C82.6585 60.2591 82.1399 62.7165 82.0771 63.7749C83.6031 62.6171 88.6526 62.6644 90.9867 62.8328Z" fill="#326227" stroke="#326227"/>
    <path d="M299.167 28.7967C296.681 30.386 295.087 33.38 294.496 34.1091C293.677 35.1202 281.338 36.461 280.164 35.2907C279.049 34.1791 277.515 30.8165 274.577 29.2052C279.286 28.6292 280.329 31.1007 280.611 30.8663C281.503 30.125 281.473 27.4478 281.137 25.661C282.927 25.8419 284.908 28.4082 285.832 30.342C286.063 28.0517 290.031 26.2964 291.986 25.7051C290.589 27.2468 290.371 29.7487 290.437 30.807C291.812 29.4735 296.83 28.9112 299.167 28.7967Z" fill="#326227" stroke="#326227"/>
    <path d="M215.534 95.3474C213.366 97.3498 212.324 100.578 211.871 101.4C211.243 102.539 199.333 106.032 197.971 105.087C196.678 104.189 194.576 101.15 191.399 100.081C195.934 98.6844 197.395 100.934 197.632 100.653C198.379 99.7664 197.878 97.1364 197.232 95.4368C199.027 95.2994 201.428 97.4767 202.679 99.2174C202.503 96.9222 206.1 94.4956 207.92 93.5692C206.817 95.3327 207.043 97.8339 207.294 98.8641C208.412 97.3093 213.253 95.8718 215.534 95.3474Z" fill="#326227" stroke="#326227"/>
    <path d="M132.271 30.3728C126.892 32.2599 122.614 37.1534 121.188 38.2574C119.212 39.7885 95.2602 36.9432 93.526 34.252C91.8787 31.6954 90.3818 24.7592 85.4884 20.4808C94.6572 21.4469 95.5962 26.5083 96.2293 26.1933C98.2312 25.1971 99.2976 20.1908 99.4096 16.7125C102.728 17.8256 105.405 23.4701 106.346 27.4775C107.745 23.3059 116.002 21.751 119.955 21.495C116.662 23.7656 115.199 28.3376 114.879 30.3397C118.045 28.4484 127.793 29.5737 132.271 30.3728Z" fill="#326227" stroke="#326227"/>
    <defs>
        <linearGradient id="paint0_linear_367_328" x1="190.856" y1="0" x2="190.856" y2="336.705" gradientUnits="userSpaceOnUse">
            <stop offset="0.442308" stop-color="#A4D96C"/>
            <stop offset="1" stop-color="#34A853"/>
        </linearGradient>
    </defs>
</svg>
