<svg width="23" height="23" viewBox="0 0 23 23" fill="none" xmlns="http://www.w3.org/2000/svg">
<path d="M1.29571e-06 11.4974C0.000578083 8.9761 0.829706 6.5249 2.35978 4.521C3.88986 2.5171 6.03608 1.07156 8.46814 0.406859C10.9002 -0.257845 13.4833 -0.104876 15.8199 0.842225C18.1565 1.78932 20.1171 3.47807 21.4 5.64855C22.6829 7.81903 23.2169 10.351 22.9199 12.8547C22.6229 15.3584 21.5114 17.6951 19.7563 19.5052C18.0012 21.3153 15.6999 22.4985 13.2066 22.8726C10.7133 23.2468 8.16605 22.7912 5.957 21.576L1.4858 22.9376C1.28637 22.9983 1.07418 23.0037 0.871915 22.9532C0.669654 22.9026 0.484937 22.7981 0.337521 22.6506C0.190104 22.5032 0.0855335 22.3185 0.034995 22.1162C-0.0155435 21.914 -0.0101491 21.7018 0.0506012 21.5024L1.4122 17.0243C0.484759 15.3298 -0.000915557 13.429 1.29571e-06 11.4974ZM6.9 10.3474C6.9 10.6524 7.02116 10.9449 7.23682 11.1605C7.45249 11.3762 7.745 11.4974 8.05 11.4974H14.95C15.255 11.4974 15.5475 11.3762 15.7632 11.1605C15.9788 10.9449 16.1 10.6524 16.1 10.3474C16.1 10.0424 15.9788 9.74986 15.7632 9.53419C15.5475 9.31853 15.255 9.19737 14.95 9.19737H8.05C7.745 9.19737 7.45249 9.31853 7.23682 9.53419C7.02116 9.74986 6.9 10.0424 6.9 10.3474ZM8.05 13.7974C7.745 13.7974 7.45249 13.9185 7.23682 14.1342C7.02116 14.3499 6.9 14.6424 6.9 14.9474C6.9 15.2524 7.02116 15.5449 7.23682 15.7605C7.45249 15.9762 7.745 16.0974 8.05 16.0974H12.65C12.955 16.0974 13.2475 15.9762 13.4632 15.7605C13.6788 15.5449 13.8 15.2524 13.8 14.9474C13.8 14.6424 13.6788 14.3499 13.4632 14.1342C13.2475 13.9185 12.955 13.7974 12.65 13.7974H8.05Z" fill="#FAA71B"/>
</svg>
