<svg width="30" height="30" viewBox="0 0 30 30" fill="none" xmlns="http://www.w3.org/2000/svg">
<path d="M15 21.5938L9.81248 24.7187C9.58332 24.8646 9.34373 24.9271 9.09373 24.9062C8.84373 24.8854 8.62498 24.8021 8.43748 24.6562C8.24998 24.5104 8.10415 24.3283 7.99998 24.11C7.89582 23.8917 7.87498 23.6467 7.93748 23.375L9.31248 17.4688L4.71873 13.5C4.5104 13.3125 4.3804 13.0988 4.32873 12.8587C4.27707 12.6187 4.29248 12.3846 4.37498 12.1563C4.45748 11.9279 4.58248 11.7404 4.74998 11.5938C4.91748 11.4471 5.14665 11.3533 5.43748 11.3125L11.5 10.7812L13.8437 5.21875C13.9479 4.96875 14.1096 4.78125 14.3287 4.65625C14.5479 4.53125 14.7717 4.46875 15 4.46875C15.2283 4.46875 15.4521 4.53125 15.6712 4.65625C15.8904 4.78125 16.0521 4.96875 16.1562 5.21875L18.5 10.7812L24.5625 11.3125C24.8541 11.3542 25.0833 11.4479 25.25 11.5938C25.4167 11.7396 25.5416 11.9271 25.625 12.1563C25.7083 12.3854 25.7241 12.62 25.6725 12.86C25.6208 13.1 25.4904 13.3133 25.2812 13.5L20.6875 17.4688L22.0625 23.375C22.125 23.6458 22.1042 23.8908 22 24.11C21.8958 24.3292 21.75 24.5112 21.5625 24.6562C21.375 24.8013 21.1562 24.8846 20.9062 24.9062C20.6562 24.9279 20.4167 24.8654 20.1875 24.7187L15 21.5938Z" fill="#FAA71B"/>
</svg>
